<svg width="88" height="25" viewBox="0 0 88 25" fill="none" xmlns="http://www.w3.org/2000/svg">
<path d="M16.0776 19.5946H20.7097L13.0295 0H7.7101L0 19.5946H4.66192L5.91705 16.2162H14.8225L16.0776 19.5946ZM10.3698 3.6134L13.657 12.6028H7.05265L10.3698 3.6134Z" fill="#4573FF"/>
<path d="M26.5433 25V17.7732C27.7088 19.2421 29.2927 19.9471 30.9961 19.9471C34.7017 19.9471 37.3913 17.215 37.3913 12.4853C37.3913 7.75558 34.7017 5.05288 30.9961 5.05288C29.2329 5.05288 27.649 5.81669 26.5433 7.19742V5.40541H22.748V25H26.5433ZM33.4466 12.4853C33.4466 14.953 31.9822 16.6275 29.8007 16.6275C28.5754 16.6275 27.1709 15.8931 26.5433 15.0118V9.98825C27.1709 9.07756 28.5754 8.3725 29.8007 8.3725C31.9822 8.3725 33.4466 10.047 33.4466 12.4853Z" fill="#4573FF"/>
<path d="M47.2105 19.9471C51.9919 19.9471 54.8608 16.5394 54.8608 12.4853C54.8608 8.46064 51.9919 5.05288 47.2105 5.05288C42.4589 5.05288 39.59 8.46064 39.59 12.4853C39.59 16.5394 42.4589 19.9471 47.2105 19.9471ZM47.2105 16.6275C44.8496 16.6275 43.5347 14.718 43.5347 12.4853C43.5347 10.282 44.8496 8.3725 47.2105 8.3725C49.5713 8.3725 50.9161 10.282 50.9161 12.4853C50.9161 14.718 49.5713 16.6275 47.2105 16.6275Z" fill="#4573FF"/>
<path d="M57.9638 19.5946H61.7591V0H57.9638V19.5946Z" fill="#4573FF"/>
<path d="M65.8097 19.5946H69.605V0H65.8097V19.5946Z" fill="#4573FF"/>
<path d="M80.3497 19.9471C85.1311 19.9471 88 16.5394 88 12.4853C88 8.46064 85.1311 5.05288 80.3497 5.05288C75.5981 5.05288 72.7292 8.46064 72.7292 12.4853C72.7292 16.5394 75.5981 19.9471 80.3497 19.9471ZM80.3497 16.6275C77.9888 16.6275 76.6739 14.718 76.6739 12.4853C76.6739 10.282 77.9888 8.3725 80.3497 8.3725C82.7105 8.3725 84.0553 10.282 84.0553 12.4853C84.0553 14.718 82.7105 16.6275 80.3497 16.6275Z" fill="#4573FF"/>
</svg>
