<svg width="307" height="110" xmlns="http://www.w3.org/2000/svg">
 <!-- Created with Method Draw - http://github.com/duopixel/Method-Draw/ -->

 <g>
  <title>background</title>
  <rect fill="none" id="canvas_background" height="112" width="309" y="-1" x="-1"/>
  <g display="none" overflow="visible" y="0" x="0" height="100%" width="100%" id="canvasGrid">
   <rect fill="url(#gridpattern)" stroke-width="0" y="1" x="1" height="600" width="800"/>
  </g>
 </g>
 <g>
  <title>Layer 1</title>
  <g id="svg_12">
   <path stroke="null" id="svg_4" fill="white" d="m57.91635,77.03985l15.66419,0l-25.97259,-66.29243l-17.98888,0l-26.07377,66.29243l15.76553,0l4.24459,-11.42987l30.11628,0l4.24466,11.42987zm-19.30269,-54.0676l11.11661,30.41281l-22.33456,0l11.21795,-30.41281z"/>
   <path stroke="null" id="svg_5" fill="white" d="m93.30863,95.32726l0,-24.44953c3.94142,4.96922 9.29783,7.35469 15.05834,7.35469c12.5316,0 21.62707,-9.24332 21.62707,-25.24489c0,-16.00147 -9.09547,-25.14524 -21.62707,-25.14524c-5.96288,0 -11.31898,2.5841 -15.05834,7.25538l0,-6.06271l-12.83452,0l0,66.2923l12.83452,0zm23.34529,-42.33973c0,8.34866 -4.95199,14.01394 -12.32955,14.01394c-4.14347,0 -8.89341,-2.48477 -11.01574,-5.46636l0,-16.99554c2.12233,-3.08102 6.87227,-5.46636 11.01574,-5.46636c7.37756,0 12.32955,5.66528 12.32955,13.91432z"/>
   <path stroke="null" id="svg_6" fill="white" d="m163.20009,78.23242c16.16979,0 25.87172,-11.52917 25.87172,-25.24489c0,-13.61613 -9.70193,-25.14524 -25.87172,-25.14524c-16.0686,0 -25.77054,11.52911 -25.77054,25.14524c0,13.71572 9.70193,25.24489 25.77054,25.24489zm0,-11.23095c-7.98371,0 -12.43042,-6.46033 -12.43042,-14.01394c0,-7.45399 4.44671,-13.91432 12.43042,-13.91432c7.98402,0 12.5316,6.46033 12.5316,13.91432c0,7.55361 -4.54758,14.01394 -12.5316,14.01394z"/>
   <path stroke="null" id="svg_7" fill="white" d="m199.56535,77.03985l12.83483,0l0,-66.29243l-12.83483,0l0,66.29243z"/>
   <path stroke="null" id="svg_8" fill="white" d="m226.09867,77.03985l12.83452,0l0,-66.29243l-12.83452,0l0,66.29243z"/>
   <path stroke="null" id="svg_9" fill="white" d="m275.26932,78.23242c16.16979,0 25.87172,-11.52917 25.87172,-25.24489c0,-13.61613 -9.70193,-25.14524 -25.87172,-25.14524c-16.0686,0 -25.77054,11.52911 -25.77054,25.14524c0,13.71572 9.70193,25.24489 25.77054,25.24489zm0,-11.23095c-7.98371,0 -12.43042,-6.46033 -12.43042,-14.01394c0,-7.45399 4.44671,-13.91432 12.43042,-13.91432c7.98402,0 12.5316,6.46033 12.5316,13.91432c0,7.55361 -4.54758,14.01394 -12.5316,14.01394z"/>
  </g>
 </g>
</svg>